<?xml version="1.0" encoding="utf-8"?>
<!-- Svg Vector Icons : http://www.onlinewebfonts.com/icon -->
<!DOCTYPE svg PUBLIC "-//W3C//DTD SVG 1.1//EN" "http://www.w3.org/Graphics/SVG/1.1/DTD/svg11.dtd">
<svg version="1.1" xmlns="http://www.w3.org/2000/svg" xmlns:xlink="http://www.w3.org/1999/xlink" x="0px" y="0px" viewBox="0 0 1000 1000" enable-background="new 0 0 1000 1000" xml:space="preserve">
<metadata> Svg Vector Icons : http://www.onlinewebfonts.com/icon </metadata>
<g><g transform="translate(0.000000,511.000000) scale(0.100000,-0.100000)"><path d="M1920.3,2930c-333.4-95.3-634.3-340.9-779.7-641.8c-82.7-173-980.2-3394.4-1027.9-3690.2C-5-2144.1,709.5-2856.1,1444-2725.7c323.4,55.2,646.8,270.8,849.9,566.6c47.6,67.7,188,356,313.4,639.3l228.1,513.9l213.1,17.6c115.3,7.5,275.8,40.1,353.5,70.2c265.7,100.3,523.9,328.4,641.8,571.6l40.1,80.2h917.5h917.5l40.1-80.2c117.8-243.2,376-471.3,641.8-571.6c77.8-30.1,238.2-62.7,356-70.2l210.6-17.6l228.1-513.9c125.3-283.3,265.7-571.6,313.4-639.3c122.8-180.5,303.3-346,483.8-441.2c137.9-75.2,180.5-85.2,396.1-92.7c178-7.5,280.8,0,388.6,32.6c213.1,60.2,468.8,203.1,611.7,335.9c223.1,208.1,348.5,596.7,300.8,922.6c-37.6,263.2-950.1,3544.8-1032.9,3710.3c-82.7,170.5-318.4,413.6-491.4,503.9c-398.6,213.1-832.3,193-1278.5-57.7l-112.8-62.7H5003.9h-1973l-140.4,75.2C2564.6,2942.5,2191.1,3005.2,1920.3,2930z M7859.3,2200.4c300.8-178,102.8-651.8-233.2-559c-255.7,70.2-300.8,436.2-70.2,561.6C7643.7,2250.6,7774.1,2250.6,7859.3,2200.4z M2589.7,2110.2c20.1-20.1,30.1-120.3,30.1-288.3v-258.2H2878c168,0,268.3-10,288.3-30.1c40.1-40.1,40.1-451.3,0-491.4c-20-20.1-120.3-30.1-288.3-30.1h-258.2V748.9c0-250.7-2.5-263.2-62.7-303.3c-80.2-52.6-428.7-42.6-463.8,15c-12.5,20-25.1,152.9-25.1,295.8v255.7h-260.7c-328.4,0-340.9,10-340.9,258.2c0,278.3,17.6,293.3,340.9,293.3h260.7v258.2c0,168,10,268.2,30.1,288.3C2138.4,2150.3,2549.6,2150.3,2589.7,2110.2z M5572.9,1769.3c22.6-15,30.1-82.7,25.1-245.7l-7.5-223.1l-526.5-7.5c-611.7-7.5-589.1-15-589.1,240.7c0,268.2-27.6,255.7,559,255.7C5312.2,1789.3,5555.4,1779.3,5572.9,1769.3z M7380.5,1729.1c102.8-55.2,152.9-147.9,152.9-280.8c0-97.8-12.5-127.9-85.3-200.6c-72.7-72.7-102.8-85.2-200.6-85.2c-188,0-315.9,122.8-315.9,300.8C6931.7,1694,7172.4,1834.4,7380.5,1729.1z M8335.6,1724.1c198.1-117.8,198.1-421.2,0-524c-243.2-125.3-521.5,77.7-451.3,335.9c25.1,90.2,100.3,183,175.5,210.6C8135.1,1774.3,8267.9,1764.2,8335.6,1724.1z M7874.4,1247.8c183-122.8,175.5-426.2-15-524c-142.9-72.7-325.9-30.1-411.2,97.8c-22.6,35.1-40.1,112.8-40.1,180.5c0,97.8,12.5,127.9,85.2,200.6c72.7,72.7,102.8,85.2,200.6,85.2C7761.5,1287.9,7839.2,1270.4,7874.4,1247.8z M5572.9,982.1c17.6-17.5,30.1-110.3,30.1-238.2c0-178-7.5-210.6-47.6-233.1c-30.1-15-240.7-25.1-508.9-25.1c-574.1,0-571.6-2.5-571.6,263.2c0,270.8-17.6,263.2,574.1,263.2C5400,1012.1,5550.4,1004.6,5572.9,982.1z M3271.6,438.1c320.9-170.5,318.4-644.3-5-802.2c-358.5-173-749.6,140.4-649.3,518.9c35.1,125.4,122.8,235.7,233.2,288.3C2963.2,498.2,3163.8,495.7,3271.6,438.1z M7217.5,403c125.4-95.3,175.5-203.1,175.5-371c2.5-338.4-343.5-546.5-656.9-396.1c-328.4,160.5-328.4,641.8,0,809.8C6866.6,510.8,7102.2,490.7,7217.5,403z"/></g></g>
</svg>